# xmcd CD database file
#
# Track frame offsets:
#	150
#	24526
#	42337
#	55312
#	72348
#	91942
#	111924
#	125633
#	139634
#	160928
#
# Disc length: 2295 seconds
#
# Revision: 1
# Processed by: cddbd v1.5.2PL0 Copyright (c) Steve Scherf et al.
# Submitted via: CDex 1.98
#
DISCID=8a08f50a
DTITLE=Deer Tick - Volume 1
DYEAR=2017
DGENRE=Country
TTITLE0=Sea of Clouds
TTITLE1=Card House
TTITLE2=Doomed from the Start
TTITLE3=Hope is Big
TTITLE4=Only Love
TTITLE5=Cocktail
TTITLE6=Me and My Man
TTITLE7=End of the World
TTITLE8=Limp Right Back
TTITLE9=Rejection
EXTD=YEAR: 2017
EXTT0=
EXTT1=
EXTT2=
EXTT3=
EXTT4=
EXTT5=
EXTT6=
EXTT7=
EXTT8=
EXTT9=
PLAYORDER=
